<?xml version="1.0" encoding="utf-8"?>
<!-- Generator: Adobe Illustrator 24.1.0, SVG Export Plug-In . SVG Version: 6.00 Build 0)  -->
<svg version="1.1" id="Layer_1" xmlns="http://www.w3.org/2000/svg" xmlns:xlink="http://www.w3.org/1999/xlink" x="0px" y="0px"
	 viewBox="0 0 455 100" style="enable-background:new 0 0 455 100;" xml:space="preserve">
<style type="text/css">
	.st0{fill-rule:evenodd;clip-rule:evenodd;fill:#C6C6C6;}
	.st1{fill-rule:evenodd;clip-rule:evenodd;fill:#FFFFFF;}
</style>
<g>
	<path class="st0" d="M52.43,41.72H34.45v-8.55l-0.01,0l0.01-0.01v-0.03h0.02L47.37,15H21.98c-1.55,0.35-2.89,1.06-4.02,2.12
		c-1.14,1.07-1.9,2.57-2.28,4.51v58.63c0.63,3.45,2.51,5.63,5.65,6.53H53V68.66H34.45v-8.7h17.98V41.72L52.43,41.72z M43.3,33.13
		h17.48v53.66h18.71V33.13h10.97L103.3,15H56.29L43.3,33.13L43.3,33.13z M135.52,15l-25.74,35.74l25.74,36.05h-23.35L93.25,60.06
		h-6.64V41.31h6.79L112.18,15H135.52L135.52,15z"/>
	<path class="st1" d="M149.16,50.94h13.49c-0.09-1.54-0.69-2.87-1.8-4c-1.11-1.13-2.77-1.69-4.98-1.69c-1.99,0-3.57,0.59-4.75,1.76
		C149.96,48.19,149.3,49.5,149.16,50.94L149.16,50.94z M163.4,59.69l8.61,2.44c-0.86,3.12-2.64,5.68-5.36,7.69
		c-2.71,2.01-6.1,3.02-10.17,3.02c-4.88,0-9.03-1.63-12.44-4.88c-3.41-3.25-5.12-7.62-5.12-13.08c0-5.24,1.66-9.51,4.98-12.81
		c3.32-3.3,7.26-4.95,11.83-4.95c5.24,0,9.37,1.53,12.37,4.58c3.01,3.05,4.51,7.29,4.51,12.71c0,1.72-0.07,2.78-0.2,3.19h-23.46
		c0.09,1.85,0.88,3.4,2.37,4.64c1.49,1.24,3.25,1.86,5.29,1.86C160.1,64.09,162.36,62.63,163.4,59.69L163.4,59.69z M208.13,38.13
		l-12.81,33.69h-10.37l-13.83-33.69h11.19l7.8,20.95l7.19-20.95H208.13L208.13,38.13z M216.51,50.94H230c-0.09-1.54-0.69-2.87-1.8-4
		c-1.11-1.13-2.77-1.69-4.98-1.69c-1.99,0-3.57,0.59-4.75,1.76C217.3,48.19,216.65,49.5,216.51,50.94L216.51,50.94z M230.75,59.69
		l8.61,2.44c-0.86,3.12-2.64,5.68-5.36,7.69c-2.71,2.01-6.1,3.02-10.17,3.02c-4.88,0-9.03-1.63-12.44-4.88
		c-3.41-3.25-5.12-7.62-5.12-13.08c0-5.24,1.66-9.51,4.98-12.81c3.32-3.3,7.26-4.95,11.83-4.95c5.24,0,9.37,1.53,12.37,4.58
		c3.01,3.05,4.51,7.29,4.51,12.71c0,1.72-0.07,2.78-0.2,3.19h-23.46c0.09,1.85,0.88,3.4,2.37,4.64c1.49,1.24,3.25,1.86,5.29,1.86
		C227.45,64.09,229.71,62.63,230.75,59.69L230.75,59.69z M253.31,52.5v19.32H243V38.13h9.97v3.86c0.86-1.49,2.18-2.66,3.97-3.49
		c1.78-0.84,3.6-1.25,5.46-1.25c4.02,0,7.07,1.25,9.15,3.76c2.08,2.51,3.12,5.73,3.12,9.66v21.15h-10.3V52.43
		c0-1.76-0.46-3.17-1.39-4.24c-0.93-1.06-2.29-1.59-4.1-1.59c-1.67,0-3.02,0.55-4.03,1.66C253.82,49.37,253.31,50.78,253.31,52.5
		L253.31,52.5z M292.07,28.3v9.83h6.58v9.02h-6.58v12.61c0,2.35,1.24,3.53,3.73,3.53c0.81,0,1.72-0.11,2.71-0.34v8.54
		c-1.27,0.63-3.05,0.95-5.36,0.95c-3.48,0-6.23-0.97-8.24-2.92c-2.01-1.94-3.02-4.59-3.02-7.93V47.15h-5.97v-9.02h1.7
		c1.72,0,3.02-0.51,3.9-1.53c0.88-1.02,1.32-2.34,1.32-3.97V28.3H292.07L292.07,28.3z M309.74,50.94h13.49
		c-0.09-1.54-0.69-2.87-1.8-4c-1.11-1.13-2.77-1.69-4.98-1.69c-1.99,0-3.57,0.59-4.75,1.76C310.53,48.19,309.88,49.5,309.74,50.94
		L309.74,50.94z M323.98,59.69l8.61,2.44c-0.86,3.12-2.64,5.68-5.36,7.69c-2.71,2.01-6.1,3.02-10.17,3.02
		c-4.88,0-9.03-1.63-12.44-4.88c-3.41-3.25-5.12-7.62-5.12-13.08c0-5.24,1.66-9.51,4.98-12.81c3.32-3.3,7.26-4.95,11.83-4.95
		c5.24,0,9.37,1.53,12.37,4.58c3,3.05,4.51,7.29,4.51,12.71c0,1.72-0.07,2.78-0.2,3.19h-23.46c0.09,1.85,0.88,3.4,2.37,4.64
		c1.49,1.24,3.25,1.86,5.29,1.86C320.68,64.09,322.94,62.63,323.98,59.69L323.98,59.69z M370.13,38.13L356.98,52.3l13.42,19.52
		h-12.61l-7.93-11.86l-3.32,3.59v8.27h-10.3V22.74h10.3v26.71l10.24-11.32H370.13L370.13,38.13z M372.68,70.37
		c-1.36-1.38-2.03-3.02-2.03-4.92c0-1.9,0.68-3.52,2.03-4.88c1.36-1.36,2.98-2.03,4.88-2.03c1.9,0,3.54,0.68,4.91,2.03
		c1.38,1.36,2.07,2.98,2.07,4.88c0,1.85-0.69,3.48-2.07,4.88c-1.38,1.4-3.02,2.1-4.91,2.1C375.67,72.43,374.04,71.74,372.68,70.37
		L372.68,70.37z M399.92,71.82h-10.3V38.13h10.3V71.82L399.92,71.82z M390.49,32.1c-1.17-1.17-1.76-2.6-1.76-4.27
		c0-1.67,0.59-3.1,1.76-4.27c1.18-1.17,2.58-1.76,4.2-1.76c1.67,0,3.11,0.59,4.3,1.76c1.2,1.18,1.8,2.6,1.8,4.27
		c0,1.67-0.6,3.1-1.8,4.27c-1.2,1.18-2.63,1.76-4.3,1.76C393.07,33.86,391.67,33.27,390.49,32.1L390.49,32.1z M420.78,63.35
		c2.12,0,3.92-0.72,5.39-2.17c1.47-1.45,2.2-3.52,2.2-6.24c0-2.71-0.73-4.78-2.2-6.2c-1.47-1.42-3.27-2.14-5.39-2.14
		c-2.08,0-3.86,0.72-5.36,2.17c-1.49,1.45-2.24,3.5-2.24,6.17c0,2.67,0.75,4.73,2.24,6.2C416.92,62.61,418.7,63.35,420.78,63.35
		L420.78,63.35z M420.78,37.11c5.11,0,9.37,1.67,12.78,5.02c3.41,3.34,5.12,7.62,5.12,12.81c0,5.2-1.71,9.48-5.12,12.85
		c-3.41,3.37-7.67,5.05-12.78,5.05c-5.06,0-9.31-1.7-12.75-5.08c-3.43-3.39-5.15-7.66-5.15-12.81c0-5.15,1.72-9.41,5.15-12.78
		C411.47,38.8,415.72,37.11,420.78,37.11L420.78,37.11z"/>
</g>
</svg>
