<?xml version="1.0" encoding="utf-8"?>
<!-- Generator: Adobe Illustrator 24.1.0, SVG Export Plug-In . SVG Version: 6.00 Build 0)  -->
<svg version="1.1" id="Layer_1" xmlns="http://www.w3.org/2000/svg" xmlns:xlink="http://www.w3.org/1999/xlink" x="0px" y="0px"
	 viewBox="0 0 167.9 167.9" style="enable-background:new 0 0 167.9 167.9;" xml:space="preserve">
<style type="text/css">
	.st0{fill-rule:evenodd;clip-rule:evenodd;fill:#FFFFFF;}
	.st1{fill:none;stroke:#FFFFFF;stroke-width:11;stroke-miterlimit:10;}
</style>
<path class="st0" d="M63.1,74.8h-18v-8.6l0,0l0,0l0,0L58,48.1H32.6c-1.5,0.3-2.9,1.1-4,2.1c-1.2,1.2-2,2.8-2.3,4.5v58.6
	c0.6,3.4,2.5,5.6,5.7,6.5h31.6v-18.2H45.1V93h18L63.1,74.8L63.1,74.8z M53.9,66.2h17.5v53.7h18.7V66.2h11L114,48.1H67L53.9,66.2
	L53.9,66.2z M146.2,48.1l-25.7,35.7l25.7,36h-23.4l-18.9-26.7h-6.6V74.3h6.8L122.8,48L146.2,48.1z"/>
<path class="st1" d="M28,5.5h111.9c12.4,0,22.5,10.1,22.5,22.5v111.9c0,12.4-10.1,22.5-22.5,22.5H28c-12.4,0-22.5-10.1-22.5-22.5V28
	C5.5,15.6,15.6,5.5,28,5.5z"/>
</svg>
