<svg id="Layer_1" data-name="Layer 1" xmlns="http://www.w3.org/2000/svg" viewBox="0 0 167.89 167.89"><defs><style>.cls-1{fill-rule:evenodd;}.cls-2{fill:none;stroke:#000;stroke-miterlimit:10;stroke-width:11px;}</style></defs><path class="cls-1" d="M75.6,83.44h-18V74.89h0v0h0l12.9-18.13H45.15a8.51,8.51,0,0,0-4,2.12,8.12,8.12,0,0,0-2.28,4.51V122q.94,5.17,5.65,6.53H76.17V110.38H57.62v-8.7h18V83.44Zm-9.13-8.59H84v53.66h18.71V74.85h11l12.84-18.13h-47l-13,18.13Zm92.22-18.13L133,92.46l25.74,36.05H135.34l-18.92-26.73h-6.64V83h6.79l18.78-26.31Z" transform="translate(-12.53 -8.67)"/><rect class="cls-2" x="5.5" y="5.5" width="156.89" height="156.89" rx="22.48"/></svg>